<svg xmlns="http://www.w3.org/2000/svg" xmlns:xlink="http://www.w3.org/1999/xlink" width="118" height="118" viewBox="0 0 118 118"><defs><linearGradient id="a" x1="0.5" x2="0.5" y2="1" gradientUnits="objectBoundingBox"><stop offset="0" stop-color="#0460ff"/><stop offset="1" stop-color="#0460ff" stop-opacity="0.349"/></linearGradient></defs><g transform="translate(0 -0.251)"><rect width="118" height="118" rx="10" transform="translate(0 0.251)" fill="url(#a)"/><path d="M35.762,36.69a2.244,2.244,0,0,0,3.173,0L40.521,35.1a2.244,2.244,0,0,0,0-3.173l-5.009-5.007,5.007-5.009a2.244,2.244,0,0,0,0-3.173l-1.586-1.586a2.244,2.244,0,0,0-3.173,0L27.58,25.336a2.244,2.244,0,0,0,0,3.173Zm13.463-1.585,1.586,1.586a2.244,2.244,0,0,0,3.173,0l8.181-8.181a2.244,2.244,0,0,0,0-3.173l-8.181-8.181a2.244,2.244,0,0,0-3.173,0l-1.586,1.586a2.244,2.244,0,0,0,0,3.173l5.007,5.007-5.007,5.009a2.244,2.244,0,0,0,0,3.173ZM87.5,58.334h-34a4.42,4.42,0,0,1-4.591,4.487H40.385a4.762,4.762,0,0,1-4.6-4.487H2.244A2.25,2.25,0,0,0,0,60.578v2.244A9,9,0,0,0,8.974,71.8h71.8a9,9,0,0,0,8.974-8.974V60.578A2.25,2.25,0,0,0,87.5,58.334ZM80.77,6.731A6.751,6.751,0,0,0,74.04,0H15.705A6.751,6.751,0,0,0,8.974,6.731V53.847h71.8ZM71.8,44.872H17.949V8.974H71.8v35.9Z" transform="translate(14.255 23.204)" fill="#fff"/></g></svg>