<svg xmlns="http://www.w3.org/2000/svg" xmlns:xlink="http://www.w3.org/1999/xlink" width="118" height="118" viewBox="0 0 118 118"><defs><linearGradient id="a" x1="0.5" x2="0.5" y2="1" gradientUnits="objectBoundingBox"><stop offset="0" stop-color="#1fc49c"/><stop offset="1" stop-color="#1fc49c" stop-opacity="0.349"/></linearGradient></defs><g transform="translate(-361 -563)"><rect width="118" height="118" rx="10" transform="translate(361 563)" fill="url(#a)"/><path d="M103.443,63.745l-7.706-4.45a34.846,34.846,0,0,0,0-12.7l7.706-4.45a2.186,2.186,0,0,0,.995-2.533,45.055,45.055,0,0,0-9.9-17.113,2.177,2.177,0,0,0-2.677-.416l-7.706,4.45a34.141,34.141,0,0,0-11-6.35V11.3a2.167,2.167,0,0,0-1.7-2.117,45.477,45.477,0,0,0-19.754,0A2.167,2.167,0,0,0,50,11.3v8.9a35.218,35.218,0,0,0-11,6.35L31.317,22.1a2.149,2.149,0,0,0-2.677.416,44.784,44.784,0,0,0-9.9,17.113,2.164,2.164,0,0,0,.995,2.533l7.706,4.45a34.846,34.846,0,0,0,0,12.7l-7.706,4.45a2.186,2.186,0,0,0-.995,2.533,45.055,45.055,0,0,0,9.9,17.113,2.177,2.177,0,0,0,2.677.416l7.706-4.45a34.141,34.141,0,0,0,11,6.35v8.9a2.167,2.167,0,0,0,1.7,2.117,45.477,45.477,0,0,0,19.754,0,2.167,2.167,0,0,0,1.7-2.117v-8.9a35.218,35.218,0,0,0,11-6.35l7.706,4.45a2.149,2.149,0,0,0,2.677-.416,44.784,44.784,0,0,0,9.9-17.113A2.234,2.234,0,0,0,103.443,63.745ZM61.582,67.417A14.472,14.472,0,1,1,76.054,52.945,14.491,14.491,0,0,1,61.582,67.417Z" transform="translate(358.46 569.175)" fill="#fff"/></g></svg>