<svg xmlns="http://www.w3.org/2000/svg" xmlns:xlink="http://www.w3.org/1999/xlink" width="118" height="118" viewBox="0 0 118 118"><defs><linearGradient id="a" x1="0.5" x2="0.5" y2="1" gradientUnits="objectBoundingBox"><stop offset="0" stop-color="#d81159"/><stop offset="1" stop-color="#d81159" stop-opacity="0.349"/></linearGradient></defs><g transform="translate(0 -0.251)"><rect width="118" height="118" rx="10" transform="translate(0 0.251)" fill="url(#a)"/><path d="M62.546,22.953a1.727,1.727,0,0,0,1.721-1.721V15.493a1.727,1.727,0,0,0-1.721-1.721H59.677V6.886A6.888,6.888,0,0,0,52.792,0H6.886A6.888,6.888,0,0,0,0,6.886V66.563a6.888,6.888,0,0,0,6.886,6.886H52.792a6.888,6.888,0,0,0,6.886-6.886V59.677h2.869a1.727,1.727,0,0,0,1.721-1.721V52.218A1.727,1.727,0,0,0,62.546,50.5H59.677V41.315h2.869a1.727,1.727,0,0,0,1.721-1.721V33.855a1.727,1.727,0,0,0-1.721-1.721H59.677V22.953Zm-9.755,43.61H6.886V6.886H52.792ZM29.839,36.725a9.181,9.181,0,1,0-9.181-9.181A9.19,9.19,0,0,0,29.839,36.725ZM16.985,55.087H42.692a3.008,3.008,0,0,0,3.213-2.754V49.578c0-4.562-4.318-8.263-9.64-8.263-1.549,0-2.683,1.148-6.427,1.148-3.859,0-4.791-1.148-6.427-1.148-5.322,0-9.64,3.7-9.64,8.263v2.754A3.008,3.008,0,0,0,16.985,55.087Z" transform="translate(26.732 22.802)" fill="#fff"/></g></svg>