<svg xmlns="http://www.w3.org/2000/svg" xmlns:xlink="http://www.w3.org/1999/xlink" width="118" height="118" viewBox="0 0 118 118"><defs><linearGradient id="a" x1="0.5" x2="0.5" y2="1" gradientUnits="objectBoundingBox"><stop offset="0" stop-color="#44c42c"/><stop offset="1" stop-color="#44c42c" stop-opacity="0.349"/></linearGradient></defs><g transform="translate(0 -0.251)"><rect width="118" height="118" rx="10" transform="translate(0 0.251)" fill="url(#a)"/><path d="M35.035,33.638a3.282,3.282,0,0,0-3.282,3.282,100,100,0,0,1-3.788,28.932,3.282,3.282,0,1,0,6.32,1.774A105.848,105.848,0,0,0,38.316,36.92,3.28,3.28,0,0,0,35.035,33.638ZM34.917,22.46A13.679,13.679,0,0,0,20.809,36.285a89.726,89.726,0,0,1-1.828,19.5,3.282,3.282,0,1,0,6.428,1.329,96.284,96.284,0,0,0,1.965-20.927,7.126,7.126,0,0,1,7.447-7.158,7.916,7.916,0,0,1,7.88,7.586,109.948,109.948,0,0,1-1.451,19.632,3.281,3.281,0,1,0,6.474,1.068,116.655,116.655,0,0,0,1.541-20.8A14.53,14.53,0,0,0,34.917,22.46ZM19.779,19.755a3.285,3.285,0,0,0-4.617.476,23.72,23.72,0,0,0-5.3,15.317A79.423,79.423,0,0,1,8.617,50.872a3.283,3.283,0,0,0,6.462,1.167,86.019,86.019,0,0,0,1.348-16.593,16.9,16.9,0,0,1,3.829-11.073,3.284,3.284,0,0,0-.477-4.617Zm14.971-8.524a24.445,24.445,0,0,0-6.261.68A3.283,3.283,0,1,0,30,18.3a19.628,19.628,0,0,1,4.65-.5c10.316.155,18.836,8.411,18.993,18.405a120.5,120.5,0,0,1-.763,15.54,3.282,3.282,0,1,0,6.522.748A127.062,127.062,0,0,0,60.21,36.1C60,22.593,48.576,11.436,34.751,11.231ZM69.224,27.84a3.282,3.282,0,1,0-6.41,1.414,34.1,34.1,0,0,1,.643,8.424,3.281,3.281,0,0,0,3.255,3.31h.027a3.282,3.282,0,0,0,3.282-3.255,40.64,40.64,0,0,0-.8-9.893ZM63.737,15.433A36.379,36.379,0,0,0,34.582,0,34.256,34.256,0,0,0,9.644,9.975,32.616,32.616,0,0,0,.027,33.732L.011,36.668a3.28,3.28,0,0,0,3.184,3.377c.031,0,.066,0,.1,0a3.283,3.283,0,0,0,3.278-3.187l.022-3.233a26.09,26.09,0,0,1,7.7-19.01,27.715,27.715,0,0,1,20.2-8.05A29.794,29.794,0,0,1,58.368,19.2a3.28,3.28,0,1,0,5.369-3.77Z" transform="translate(23.964 24.229)" fill="#fff"/></g></svg>