<svg xmlns="http://www.w3.org/2000/svg" xmlns:xlink="http://www.w3.org/1999/xlink" width="147" height="147" viewBox="0 0 147 147"><defs><linearGradient id="a" y1="0.5" x2="1" y2="0.5" gradientUnits="objectBoundingBox"><stop offset="0" stop-color="#ba78fb"/><stop offset="1" stop-color="#8178fb"/></linearGradient></defs><g transform="translate(-846 -667)"><path d="M10,0H137a10,10,0,0,1,10,10V137a10,10,0,0,1-10,10H10A10,10,0,0,1,0,137V10A10,10,0,0,1,10,0Z" transform="translate(846 667)" fill="url(#a)"/><text transform="translate(891.978 795.6)" fill="#fff" font-size="30" font-family="Montserrat-SemiBold, Montserrat" font-weight="600"><tspan x="0" y="0">Get</tspan></text><path d="M80.558,97.859,53.327,125.09a3.9,3.9,0,0,1-6.646-2.756V106.774H24.638a3.881,3.881,0,0,1-3.89-3.89V87.323a3.881,3.881,0,0,1,3.89-3.89H46.682V67.872a3.9,3.9,0,0,1,6.646-2.756L80.558,92.348A3.923,3.923,0,0,1,80.558,97.859ZM31.121,124.279V117.8a1.951,1.951,0,0,0-1.945-1.945H15.561a5.181,5.181,0,0,1-5.187-5.187V79.543a5.181,5.181,0,0,1,5.187-5.187H29.176a1.951,1.951,0,0,0,1.945-1.945V65.927a1.951,1.951,0,0,0-1.945-1.945H15.561A15.565,15.565,0,0,0,0,79.543v31.121a15.565,15.565,0,0,0,15.561,15.561H29.176A1.951,1.951,0,0,0,31.121,124.279Z" transform="translate(883.286 624.833)" fill="#fff"/></g></svg>