<svg xmlns="http://www.w3.org/2000/svg" xmlns:xlink="http://www.w3.org/1999/xlink" width="83.019" height="83.036" viewBox="0 0 83.019 83.036"><defs><linearGradient id="a" x1="0.154" y1="0.095" x2="0.88" y2="0.947" gradientUnits="objectBoundingBox"><stop offset="0" stop-color="#bb27e6"/><stop offset="1" stop-color="#ff67a4"/></linearGradient></defs><path d="M56.334,33.446C53.906,18.5,48.181,8,41.518,8S29.13,18.5,26.7,33.446ZM25.446,49.518A104.931,104.931,0,0,0,26,60.232H57.02a104.928,104.928,0,0,0,.552-10.714A104.931,104.931,0,0,0,57.02,38.8H26A104.932,104.932,0,0,0,25.446,49.518ZM79.8,33.446A41.606,41.606,0,0,0,53.354,9.741c4.085,5.658,6.9,14.18,8.371,23.705ZM29.665,9.741A41.578,41.578,0,0,0,3.231,33.446h18.08C22.768,23.921,25.58,15.4,29.665,9.741ZM81.6,38.8h-19.2c.352,3.516.552,7.115.552,10.714s-.2,7.2-.552,10.714H81.579a41.16,41.16,0,0,0,1.44-10.714A41.879,41.879,0,0,0,81.6,38.8ZM20.089,49.518c0-3.6.2-7.2.552-10.714H1.44a40.587,40.587,0,0,0,0,21.429H20.625C20.29,56.717,20.089,53.117,20.089,49.518ZM26.7,65.589c2.427,14.95,8.153,25.446,14.816,25.446s12.388-10.5,14.816-25.446ZM53.371,89.295A41.645,41.645,0,0,0,79.822,65.589H61.741C60.268,75.115,57.455,83.636,53.371,89.295ZM3.231,65.589A41.606,41.606,0,0,0,29.682,89.295c-4.085-5.658-6.9-14.18-8.371-23.705H3.231Z" transform="translate(0 -8)" fill="url(#a)"/></svg>