<svg xmlns="http://www.w3.org/2000/svg" xmlns:xlink="http://www.w3.org/1999/xlink" width="484.3" height="194.702" viewBox="0 0 484.3 194.702"><defs><linearGradient id="a" x1="0.5" x2="0.5" y2="1" gradientUnits="objectBoundingBox"><stop offset="0" stop-color="#c937c9"/><stop offset="1" stop-color="#c937c9" stop-opacity="0.349"/></linearGradient></defs><g transform="translate(-322 -515)"><rect width="484.3" height="194.702" rx="10" transform="translate(322 515)" fill="#fff"/><g transform="translate(361 551.749)"><rect width="118" height="118" rx="10" transform="translate(0 0.251)" fill="url(#a)"/><path d="M48.1,8a40.1,40.1,0,1,0,40.1,40.1A40.088,40.088,0,0,0,48.1,8Zm0,72.43A32.335,32.335,0,1,1,80.43,48.1,32.326,32.326,0,0,1,48.1,80.43Zm9.991-16.879L44.361,53.576a1.953,1.953,0,0,1-.792-1.568V25.461a1.946,1.946,0,0,1,1.94-1.94h5.174a1.946,1.946,0,0,1,1.94,1.94V48.37l10.8,7.857a1.939,1.939,0,0,1,.42,2.716L60.8,63.131a1.953,1.953,0,0,1-2.716.42Z" transform="translate(10.809 11.06)" fill="#fff"/></g><text transform="translate(513.978 580.6)" font-size="30" font-family="Montserrat-SemiBold, Montserrat" font-weight="600"><tspan x="0" y="0">sysUptime</tspan></text><text transform="translate(514 612)" font-size="20" font-family="Montserrat-Regular, Montserrat"><tspan x="0" y="0">13h 20min 48sec</tspan></text><text transform="translate(514 667)" fill="#7b7b7b" font-size="13" font-family="Montserrat-Regular, Montserrat"><tspan x="0" y="0">1.3.6.1.2.1.1.5.0	</tspan></text></g></svg>