<svg xmlns="http://www.w3.org/2000/svg" xmlns:xlink="http://www.w3.org/1999/xlink" width="118" height="118" viewBox="0 0 118 118"><defs><linearGradient id="a" x1="0.869" y1="1.072" x2="0.86" gradientUnits="objectBoundingBox"><stop offset="0" stop-color="#2cbcf2" stop-opacity="0.4"/><stop offset="1" stop-color="#1263b5"/></linearGradient></defs><g transform="translate(-361 -563)"><rect width="118" height="118" rx="10" transform="translate(361 563)" fill="url(#a)"/><g transform="translate(-2962.827 1236.898)"><path d="M28.913,77.1a3.568,3.568,0,0,1-2.972-1.555c-3.9-5.659-7.188-10.339-10.086-14.468C2.731,42.382,0,38.491,0,28.913A28.921,28.921,0,0,1,55.555,17.659a28.733,28.733,0,0,1,2.272,11.255c0,9.578-2.731,13.469-15.855,32.166-2.9,4.129-6.183,8.809-10.086,14.468A3.568,3.568,0,0,1,28.913,77.1Zm-2.7-56.228v15.4h3.564V32.027h3.1a8.713,8.713,0,0,0,3.552-.671,5.205,5.205,0,0,0,2.321-1.936,5.8,5.8,0,0,0,0-5.929,5.31,5.31,0,0,0-2.321-1.936,8.594,8.594,0,0,0-3.552-.681Zm-7.216,0v15.4h3.564v-15.4Zm13.685,8.249h-2.9V23.777h2.9a3.76,3.76,0,0,1,2.442.693,2.452,2.452,0,0,1,.836,1.991,2.424,2.424,0,0,1-.836,1.969A3.756,3.756,0,0,1,32.683,29.123Z" transform="translate(3354 -653)" fill="#fff"/></g></g></svg>