<svg xmlns="http://www.w3.org/2000/svg" xmlns:xlink="http://www.w3.org/1999/xlink" width="118" height="118" viewBox="0 0 118 118"><defs><linearGradient id="a" x1="0.5" x2="0.5" y2="1" gradientUnits="objectBoundingBox"><stop offset="0" stop-color="orange"/><stop offset="1" stop-color="orange" stop-opacity="0.349"/></linearGradient></defs><g transform="translate(0 -0.251)"><rect width="118" height="118" rx="10" transform="translate(0 0.251)" fill="url(#a)"/><path d="M16.519,46.745v23.11l3.248,4.87a1.771,1.771,0,0,0,2.945,0l3.246-4.87V46.745a24.9,24.9,0,0,1-9.439,0ZM21.239,0A21.239,21.239,0,1,0,42.477,21.239,21.238,21.238,0,0,0,21.239,0Zm0,11.209A10.04,10.04,0,0,0,11.209,21.239a1.77,1.77,0,1,1-3.54,0A13.585,13.585,0,0,1,21.239,7.669a1.77,1.77,0,1,1,0,3.54Z" transform="translate(38 21.727)" fill="#fff"/></g></svg>