<svg xmlns="http://www.w3.org/2000/svg" xmlns:xlink="http://www.w3.org/1999/xlink" width="118" height="118" viewBox="0 0 118 118"><defs><linearGradient id="a" x1="0.5" x2="0.5" y2="1" gradientUnits="objectBoundingBox"><stop offset="0" stop-color="#5358f1"/><stop offset="1" stop-color="#5358f1" stop-opacity="0.349"/></linearGradient></defs><g transform="translate(-361 -563)"><rect width="118" height="118" rx="10" transform="translate(361 563)" fill="url(#a)"/><g transform="translate(380.164 581.376)"><g transform="translate(0 0.001)"><path d="M78.26,37.95A2.362,2.362,0,0,0,75.9,40.312,35.588,35.588,0,1,1,63.749,13.534l-7.415,7.415a25.132,25.132,0,1,0,9.109,19.363,2.362,2.362,0,1,0-4.724,0,20.4,20.4,0,1,1-7.743-16l-7.5,7.5a9.946,9.946,0,1,0,3.34,3.34l20-20a2.363,2.363,0,0,0,0-3.341A40.311,40.311,0,0,0,11.807,68.816a40.311,40.311,0,0,0,68.815-28.5A2.362,2.362,0,0,0,78.26,37.95Zm-37.949,7.59a5.228,5.228,0,1,1,3.7-8.925h0a5.228,5.228,0,0,1-3.7,8.924Z" transform="translate(0 -0.001)" fill="#fff"/></g></g></g></svg>