<svg xmlns="http://www.w3.org/2000/svg" xmlns:xlink="http://www.w3.org/1999/xlink" width="147" height="147" viewBox="0 0 147 147"><defs><linearGradient id="a" y1="0.5" x2="1.02" y2="0.5" gradientUnits="objectBoundingBox"><stop offset="0" stop-color="#78b5fb"/><stop offset="1" stop-color="#78e5fb"/></linearGradient></defs><g transform="translate(-846 -667)"><rect width="147" height="147" rx="10" transform="translate(846 667)" fill="url(#a)"/><text transform="translate(894.978 795.6)" fill="#fff" font-size="30" font-family="Montserrat-SemiBold, Montserrat" font-weight="600"><tspan x="0" y="0">Set</tspan></text><path d="M66.034,124.954H52.7a1.91,1.91,0,0,1-1.9-1.9V116.7a1.91,1.91,0,0,1,1.9-1.9H66.034a5.074,5.074,0,0,0,5.08-5.08V79.239a5.074,5.074,0,0,0-5.08-5.08H52.7a1.91,1.91,0,0,1-1.9-1.9V65.9A1.91,1.91,0,0,1,52.7,64H66.034A15.243,15.243,0,0,1,81.273,79.239v30.477A15.243,15.243,0,0,1,66.034,124.954ZM58.573,93.049,31.906,66.381a3.816,3.816,0,0,0-6.508,2.7V84.318H3.81A3.8,3.8,0,0,0,0,88.128v15.239a3.8,3.8,0,0,0,3.81,3.81H25.4v15.239a3.816,3.816,0,0,0,6.508,2.7L58.573,98.446A3.842,3.842,0,0,0,58.573,93.049Z" transform="translate(878.845 624.811)" fill="#fff"/></g></svg>