<svg xmlns="http://www.w3.org/2000/svg" xmlns:xlink="http://www.w3.org/1999/xlink" width="118" height="118" viewBox="0 0 118 118"><defs><linearGradient id="a" x1="0.5" x2="0.5" y2="1" gradientUnits="objectBoundingBox"><stop offset="0" stop-color="#c937c9"/><stop offset="1" stop-color="#c937c9" stop-opacity="0.349"/></linearGradient></defs><g transform="translate(0 -0.251)"><rect width="118" height="118" rx="10" transform="translate(0 0.251)" fill="url(#a)"/><path d="M48.1,8a40.1,40.1,0,1,0,40.1,40.1A40.088,40.088,0,0,0,48.1,8Zm0,72.43A32.335,32.335,0,1,1,80.43,48.1,32.326,32.326,0,0,1,48.1,80.43Zm9.991-16.879L44.361,53.576a1.953,1.953,0,0,1-.792-1.568V25.461a1.946,1.946,0,0,1,1.94-1.94h5.174a1.946,1.946,0,0,1,1.94,1.94V48.37l10.8,7.857a1.939,1.939,0,0,1,.42,2.716L60.8,63.131a1.953,1.953,0,0,1-2.716.42Z" transform="translate(10.809 11.06)" fill="#fff"/></g></svg>