<svg xmlns="http://www.w3.org/2000/svg" width="640.001" height="512" viewBox="0 0 640.001 512"><path d="M50.2,375.6a16.036,16.036,0,0,0,19.6,11.3l216.4-58a16.036,16.036,0,0,0,11.3-19.6L247.8,123.8a16.036,16.036,0,0,0-19.6-11.3L151,133.3,175.8,226,114,242.5,89.2,149.8,11.9,170.5A16.036,16.036,0,0,0,.6,190.1L50.2,375.6ZM384,0a31.966,31.966,0,0,0-32,32V355.6L5.9,450a7.954,7.954,0,0,0-5.6,9.8l12.6,46.3a7.954,7.954,0,0,0,9.8,5.6L416.4,404.3C418.8,464.1,467.6,512,528,512A111.944,111.944,0,0,0,640,400V0ZM528,448a48,48,0,1,1,48-48A48.012,48.012,0,0,1,528,448Z" transform="translate(0.001)"/></svg>