<svg xmlns="http://www.w3.org/2000/svg" xmlns:xlink="http://www.w3.org/1999/xlink" width="118" height="118" viewBox="0 0 118 118"><defs><linearGradient id="a" x1="0.5" x2="0.5" y2="1" gradientUnits="objectBoundingBox"><stop offset="0" stop-color="#3dcdd2"/><stop offset="1" stop-color="#3dcdd2" stop-opacity="0.349"/></linearGradient></defs><g transform="translate(-361 -563)"><rect width="118" height="118" rx="10" transform="translate(361 563)" fill="url(#a)"/><path d="M6.154,46.047a1.966,1.966,0,0,0,2.4,1.385l26.529-7.11a1.966,1.966,0,0,0,1.385-2.4L30.378,15.177a1.966,1.966,0,0,0-2.4-1.385l-9.464,2.55,3.04,11.365-7.576,2.023-3.04-11.365L1.458,20.9a1.966,1.966,0,0,0-1.385,2.4L6.154,46.047ZM47.076,0a3.919,3.919,0,0,0-3.923,3.923V43.595L.723,55.168a.975.975,0,0,0-.687,1.2l1.545,5.676a.975.975,0,0,0,1.2.687L51.048,49.565a13.711,13.711,0,0,0,27.412-.527V0ZM64.729,54.922a5.885,5.885,0,1,1,5.885-5.885A5.886,5.886,0,0,1,64.729,54.922Z" transform="translate(380.54 590.232)" fill="#fff"/></g></svg>