<svg xmlns="http://www.w3.org/2000/svg" xmlns:xlink="http://www.w3.org/1999/xlink" width="147" height="147" viewBox="0 0 147 147"><defs><linearGradient id="a" y1="0.5" x2="1" y2="0.5" gradientUnits="objectBoundingBox"><stop offset="0" stop-color="#8178fb"/><stop offset="1" stop-color="#78b5fb"/></linearGradient></defs><g transform="translate(-846 -667)"><path d="M10,0H137a10,10,0,0,1,10,10V137a10,10,0,0,1-10,10H10A10,10,0,0,1,0,137V10A10,10,0,0,1,10,0Z" transform="translate(846 667)" fill="url(#a)"/><text transform="translate(858.978 795.6)" fill="#fff" font-size="30" font-family="Montserrat-SemiBold, Montserrat" font-weight="600"><tspan x="0" y="0">Subtree</tspan></text><path d="M50.1,50.118,39.524,38.134h4.056a3.009,3.009,0,0,0,2.752-1.73A2.919,2.919,0,0,0,45.9,33.22L35.551,21.183h3.826a3,3,0,0,0,2.763-1.8,2.947,2.947,0,0,0-.562-3.189L26.975.633a2.181,2.181,0,0,0-3.088,0L9.282,16.191a2.949,2.949,0,0,0-.562,3.189,3,3,0,0,0,2.764,1.8H15.31L4.962,33.222a2.924,2.924,0,0,0-.433,3.184,3.009,3.009,0,0,0,2.752,1.728h4.056L.757,50.118a2.928,2.928,0,0,0-.471,3.213,3.071,3.071,0,0,0,2.782,1.755H21.193v3.238l-4.011,6.41a2.119,2.119,0,0,0,1.9,3.067H31.785a2.119,2.119,0,0,0,1.9-3.067l-4.011-6.41V55.085H47.793a3.071,3.071,0,0,0,2.782-1.755A2.928,2.928,0,0,0,50.1,50.118Z" transform="translate(894.134 686.217)" fill="#fff"/></g></svg>