<svg xmlns="http://www.w3.org/2000/svg" xmlns:xlink="http://www.w3.org/1999/xlink" width="118" height="118" viewBox="0 0 118 118"><defs><linearGradient id="a" x1="0.5" x2="0.5" y2="1" gradientUnits="objectBoundingBox"><stop offset="0" stop-color="#3dcdd2"/><stop offset="1" stop-color="#3dcdd2" stop-opacity="0.349"/></linearGradient></defs><g transform="translate(-361 -563)"><rect width="118" height="118" rx="10" transform="translate(361 563)" fill="url(#a)"/><path d="M31.438,19.087V0H3.368A3.36,3.36,0,0,0,0,3.368V68.489a3.36,3.36,0,0,0,3.368,3.368H50.525a3.36,3.36,0,0,0,3.368-3.368V22.455H34.806A3.378,3.378,0,0,1,31.438,19.087ZM40.585,49.4H31.438V60.631a2.245,2.245,0,0,1-2.246,2.246H24.7a2.245,2.245,0,0,1-2.246-2.246V49.4H13.308a2.246,2.246,0,0,1-1.582-3.84L25.258,32.132a2.393,2.393,0,0,1,3.374,0L42.164,45.564A2.245,2.245,0,0,1,40.585,49.4ZM52.911,14.736,39.171.982A3.366,3.366,0,0,0,36.785,0h-.856V17.964H53.893v-.856A3.358,3.358,0,0,0,52.911,14.736Z" transform="translate(393.107 586.342)" fill="#fff"/></g></svg>