<svg xmlns="http://www.w3.org/2000/svg" xmlns:xlink="http://www.w3.org/1999/xlink" width="147" height="147" viewBox="0 0 147 147"><defs><linearGradient id="a" x1="0.5" x2="0.5" y2="1" gradientUnits="objectBoundingBox"><stop offset="0" stop-color="#048ba8"/><stop offset="1" stop-color="#048ba8" stop-opacity="0.349"/></linearGradient></defs><g transform="translate(-846 -667)"><path d="M10,0H137a10,10,0,0,1,10,10V137a10,10,0,0,1-10,10H10A10,10,0,0,1,0,137V10A10,10,0,0,1,10,0Z" transform="translate(846 667)" fill="url(#a)"/><text transform="translate(879.978 796.6)" fill="#fff" font-size="30" font-family="Montserrat-SemiBold, Montserrat" font-weight="600"><tspan x="0" y="0">Walk</tspan></text><path d="M25.313,11.673a5.836,5.836,0,1,0-5.836-5.836A5.838,5.838,0,0,0,25.313,11.673ZM36.8,29.8,33.97,28.367l-1.179-3.575a13.257,13.257,0,0,0-12.427-9.229c-4.377-.012-6.8,1.228-11.344,3.064a11.6,11.6,0,0,0-6.043,5.618L2.162,25.9a3.9,3.9,0,0,0,1.727,5.216,3.839,3.839,0,0,0,5.168-1.739l.815-1.654a3.865,3.865,0,0,1,2.006-1.872l3.259-1.313-1.848,7.381a7.809,7.809,0,0,0,1.812,7.15l7.283,7.952a7.847,7.847,0,0,1,1.812,3.368L26.419,59.3a3.891,3.891,0,1,0,7.551-1.885l-2.7-10.822a7.778,7.778,0,0,0-1.812-3.368l-5.532-6.043,2.091-8.353.669,2.006a7.755,7.755,0,0,0,3.854,4.5l2.833,1.435a3.839,3.839,0,0,0,5.168-1.739A3.937,3.937,0,0,0,36.8,29.8ZM8.971,46.91a7.545,7.545,0,0,1-1.727,2.614l-6.08,6.092a3.89,3.89,0,0,0,5.5,5.508L13.883,53.9a7.9,7.9,0,0,0,1.727-2.614l1.641-4.11c-6.724-7.332-4.706-5.083-5.763-6.529L8.971,46.91Z" transform="translate(900.113 688.811)" fill="#fff"/></g></svg>