<svg xmlns="http://www.w3.org/2000/svg" xmlns:xlink="http://www.w3.org/1999/xlink" width="118" height="118" viewBox="0 0 118 118"><defs><linearGradient id="a" x1="0.5" x2="0.5" y2="1" gradientUnits="objectBoundingBox"><stop offset="0" stop-color="#7d46d1"/><stop offset="1" stop-color="#7d46d1" stop-opacity="0.349"/></linearGradient></defs><g transform="translate(-361 -563)"><rect width="118" height="118" rx="10" transform="translate(361 563)" fill="url(#a)"/><path d="M28.923,13.339a6.67,6.67,0,1,0-6.67-6.67A6.671,6.671,0,0,0,28.923,13.339ZM42.054,34.057l-3.238-1.64-1.348-4.085a15.15,15.15,0,0,0-14.2-10.546c-5-.014-7.767,1.4-12.964,3.5A13.254,13.254,0,0,0,3.4,27.707L2.467,29.6A4.461,4.461,0,0,0,4.44,35.558a4.387,4.387,0,0,0,5.905-1.987l.931-1.89a4.417,4.417,0,0,1,2.293-2.14l3.724-1.5-2.112,8.434a8.924,8.924,0,0,0,2.07,8.17l8.323,9.087a8.967,8.967,0,0,1,2.07,3.849l2.543,10.185a4.447,4.447,0,0,0,8.629-2.154L35.732,53.246a8.889,8.889,0,0,0-2.07-3.849l-6.322-6.906,2.39-9.546.764,2.293a8.862,8.862,0,0,0,4.4,5.141l3.238,1.64a4.387,4.387,0,0,0,5.905-1.987A4.5,4.5,0,0,0,42.054,34.057ZM10.248,53.607a8.622,8.622,0,0,1-1.973,2.987L1.328,63.556a4.446,4.446,0,0,0,6.281,6.294L15.862,61.6a9.032,9.032,0,0,0,1.973-2.987l1.876-4.7c-7.684-8.379-5.377-5.808-6.586-7.462l-2.876,7.156Z" transform="translate(397.503 586.921)" fill="#fff"/></g></svg>